<svg xmlns="http://www.w3.org/2000/svg" width="44" height="31" fill="none" viewBox="0 0 44 31"><path fill="#fff" d="M6.373 30.797a22.5 22.5 0 0 1-4.667-6.942Q0 19.911 0 15.398q0-4.547 1.706-8.492T6.373 0l2.45 2.45A18.6 18.6 0 0 0 4.87 8.294q-1.432 3.323-1.432 7.104 0 3.84 1.432 7.162a17.9 17.9 0 0 0 3.953 5.786zm6.474-6.474a13.2 13.2 0 0 1-2.69-4.02q-.99-2.283-.99-4.905 0-2.657.99-4.94a12.7 12.7 0 0 1 2.69-3.984l2.45 2.45q-1.26 1.26-1.977 2.922a8.9 8.9 0 0 0-.716 3.552q0 1.89.716 3.552a9.3 9.3 0 0 0 1.977 2.922zm6.502-6.503q-1.016-1.015-1.016-2.422 0-1.405 1.016-2.421 1.016-1.017 2.422-1.016 1.405 0 2.422 1.016 1.015 1.016 1.015 2.421 0 1.407-1.015 2.422-1.017 1.016-2.422 1.016t-2.422-1.016m11.346 6.503-2.45-2.45q1.26-1.261 1.976-2.923a8.9 8.9 0 0 0 .716-3.552q0-1.89-.716-3.552a9.3 9.3 0 0 0-1.976-2.922l2.45-2.45a12.7 12.7 0 0 1 2.69 3.984q.99 2.283.99 4.94 0 2.622-.99 4.905a13.2 13.2 0 0 1-2.69 4.02m6.474 6.474-2.45-2.45a18.6 18.6 0 0 0 3.953-5.844q1.432-3.324 1.432-7.105 0-3.816-1.432-7.14a18.2 18.2 0 0 0-3.953-5.808L37.169 0q2.961 2.961 4.667 6.906t1.706 8.492q0 4.513-1.706 8.457a22.5 22.5 0 0 1-4.667 6.942"/></svg>